HIERARCHY
ROOT Hips
{
  OFFSET -30.7971 100.457 188.197
  CHANNELS 6 Xposition Yposition Zposition Zrotation Xrotation Yrotation
  JOINT RightUpLeg
  {
    OFFSET -8.9458 -8.66707 0.101652
    CHANNELS 3 Zrotation Xrotation Yrotation
    JOINT RightLeg
    {
      OFFSET 0 -44.4227 1.3727
      CHANNELS 3 Zrotation Xrotation Yrotation
      JOINT RightFoot
      {
        OFFSET 0.253549 -42.0924 -1.46059
        CHANNELS 3 Zrotation Xrotation Yrotation
        JOINT RightToes
        {
          OFFSET 0.04 -4.41509 8.4991
          CHANNELS 3 Zrotation Xrotation Yrotation
          End Site
          {
            OFFSET -0.08 -0.137448 9.77979
          }
        }
      }
    }
  }
  JOINT Spine
  {
    OFFSET 0 11.8905 0
    CHANNELS 3 Zrotation Xrotation Yrotation
    JOINT Spine1
    {
      OFFSET 0 25.6574 0.127663
      CHANNELS 3 Zrotation Xrotation Yrotation
      JOINT HEad
      {
        OFFSET 0 8.73416 0.011341
        CHANNELS 3 Zrotation Xrotation Yrotation
        End Site
        {
          OFFSET -0.29 12.7742 2.51395
        }
      }
      JOINT LeftShoulder1
      {
        OFFSET 8.99 -0.362252 -0.22
        CHANNELS 3 Zrotation Xrotation Yrotation
        JOINT LeftArm
        {
          OFFSET 10.2827 -0.00338 0.322123
          CHANNELS 3 Zrotation Xrotation Yrotation
          JOINT LeftForeArm
          {
            OFFSET 32.7669 0.099144 -1.42434
            CHANNELS 3 Zrotation Xrotation Yrotation
            JOINT LeftHand
            {
              OFFSET 27.5643 0.085362 1.02216
              CHANNELS 3 Zrotation Xrotation Yrotation
              End Site
              {
                OFFSET 16.7443 -0.6 1.50291
              }
            }
          }
        }
      }
      JOINT RightShoulder
      {
        OFFSET -8.99 -0.362252 -0.22
        CHANNELS 3 Zrotation Xrotation Yrotation
        JOINT RightArm
        {
          OFFSET -10.2827 -0.00338 0.322123
          CHANNELS 3 Zrotation Xrotation Yrotation
          JOINT RightForeArm
          {
            OFFSET -32.8971 0.099144 -1.42434
            CHANNELS 3 Zrotation Xrotation Yrotation
            JOINT RightHand
            {
              OFFSET -27.4921 0.085362 1.02216
              CHANNELS 3 Zrotation Xrotation Yrotation
              End Site
              {
                OFFSET -16.6312 -0.6 1.50291
              }
            }
          }
        }
      }
    }
  }
  JOINT LeftUpLeg
  {
    OFFSET 8.9458 -8.66707 0.101652
    CHANNELS 3 Zrotation Xrotation Yrotation
    JOINT LeftLeg
    {
      OFFSET 0 -44.4227 1.3727
      CHANNELS 3 Zrotation Xrotation Yrotation
      JOINT LeftFoot
      {
        OFFSET -0.253549 -42.0924 -1.46059
        CHANNELS 3 Zrotation Xrotation Yrotation
        JOINT LeftToes
        {
          OFFSET -0.04 -4.41509 8.4991
          CHANNELS 3 Zrotation Xrotation Yrotation
          End Site
          {
            OFFSET 0.08 -0.047448 9.77979
          }
        }
      }
    }
  }
}
MOTION
Frames:	17
Frame Time:	0.0166667
-27.4809 100.292 196.284 -0.103072 -0.0321453 -170.989 3.42334 11.6973 -0.608279 -4.62446 17.3547 16.2899 -8.86361 -3.73008 -0.184739 0.0462048 0.000533964 0.662642 -0.0559425 2.38144 0.885767 5.35355 0.891993 -0.271012 0.827138 13.7183 -0.573055 -1.2921e-015 0 -1.59028e-015 -86.4908 -36.9849 7.93458 -21.6751 15.0095 -15.0414 0.368473 9.90896 -0.00117926 -3.08422 0.180719 -0.357602 83.7344 -23.0453 5.35653 26.3758 14.5114 10.975 -0.369625 9.91382 0.00119886 -1.38581 -18.9106 -0.512897 1.41115 17.0565 18.3377 -1.15973 3.7196 0.140507 3.081e-011 5.56865e-012 -6.72178e-011 
-28.1112 100.342 194.854 -0.234304 -0.0154139 -171.48 2.87119 10.6497 -1.13172 -5.02777 20.5331 16.9432 -8.09044 -2.21843 -0.0689117 -2.6628 -0.627621 0.476235 -0.286139 2.44453 0.912122 5.31283 0.744195 -0.271002 0.580387 14.1259 -0.421227 8.94531e-016 0 -1.59028e-015 -86.5977 -37.2367 7.79014 -21.5538 14.8853 -14.4906 0.368473 9.90896 -0.00117926 -3.34146 0.176733 -0.299121 83.2711 -23.9924 3.77267 26.3284 14.4049 10.6341 -0.369625 9.91382 0.00119886 -1.56268 -18.3397 1.07757 1.59206 18.064 17.0617 -1.339 2.41213 0.135682 -0.139962 0.261925 -0.112713 
-28.7232 100.386 193.443 -0.382456 0.00409505 -172.016 2.31138 9.43851 -1.74618 -5.62779 23.8218 17.7995 -7.31481 -0.391714 0.0515659 -6.1676 -1.40475 0.171287 -0.551747 2.50481 0.941349 5.24095 0.655352 -0.270997 0.393317 14.4705 -0.2419 -2.98177e-016 -7.95139e-016 -3.18055e-015 -86.7084 -37.4015 7.60428 -21.4614 14.7956 -14.1035 0.368473 9.90896 -0.00117926 -3.56914 0.171841 -0.273443 82.7687 -24.8337 2.27923 26.3118 14.2888 10.2446 -0.369625 9.91382 0.00119886 -1.75766 -17.7127 2.63422 1.78681 18.9599 15.884 -1.50396 1.13681 0.130196 -0.270212 0.459677 -0.20421 
-29.2878 100.415 192.082 -0.604082 0.0503186 -172.684 1.68087 7.81693 -2.70491 -6.74584 27.3955 19.096 -6.46863 2.53375 0.197303 -13.0874 -2.88564 -0.611087 -0.93531 2.55815 0.980155 5.066 0.75724 -0.271003 0.378365 14.6559 0.0271652 1.98785e-016 -7.95139e-016 1.59028e-015 -86.8378 -37.3558 7.30404 -21.4495 14.8016 -14.1524 0.368473 9.90896 -0.00117926 -3.73858 0.163824 -0.33851 82.2846 -25.3838 1.06936 26.4019 14.1431 9.70505 -0.369625 9.91382 0.00119886 -1.95272 -16.9245 4.2803 1.94583 19.5309 14.865 -1.62372 -0.0731762 0.122356 -0.312573 0.472051 -0.218544 
-29.8194 100.436 190.756 -0.797414 0.0624807 -173.407 1.12801 5.87439 -3.61824 -8.15778 31.1613 20.8042 -5.73979 5.46692 0.328471 -18.7949 -4.00057 -1.27156 -1.33064 2.60562 1.0199 4.87899 0.890352 -0.271012 0.448097 14.7179 0.306687 9.93923e-017 -1.59028e-015 -2.38542e-015 -86.9425 -37.1192 6.95057 -21.4949 14.8703 -14.4707 0.368473 9.90896 -0.00117926 -3.81781 0.15571 -0.451713 81.7918 -25.8431 0.0428588 26.4969 13.9891 9.12521 -0.369625 9.91382 0.00119886 -2.15902 -16.1262 5.54994 2.02657 19.9514 14.2649 -1.73294 -1.18876 0.114219 -0.469181 0.405983 -0.238644 
-30.3244 100.438 189.465 -0.887641 -0.0431643 -174.163 0.8858 3.55489 -4.23982 -9.8244 35.2144 23.7133 -5.21488 7.61988 0.399186 -18.5697 -3.46241 -1.20248 -1.681 2.65916 1.05985 4.75163 0.892056 -0.271012 0.544855 14.6641 0.546186 -2.48481e-016 7.95139e-016 7.95139e-016 -86.9606 -36.7061 6.62764 -21.5987 14.9983 -15.0349 0.368473 9.90896 -0.00117926 -3.78839 0.151683 -0.556851 81.2919 -26.3886 -0.847305 26.4883 13.8422 8.58319 -0.369625 9.91382 0.00119886 -2.35647 -15.4934 5.89829 1.95803 20.3641 14.4793 -1.86465 -2.16007 0.107944 -1.05394 0.296666 -0.355025 
-30.7971 100.457 188.197 -0.862851 -0.17517 -174.877 0.817032 1.04995 -4.42474 -11.633 39.1159 25.7455 -5.07118 8.86736 0.442761 -15.0762 -2.48422 -0.773444 -1.92051 2.68201 1.08295 4.66989 0.903496 -0.271013 0.694663 14.4837 0.720696 1.19271e-015 0 -1.59028e-015 -86.9549 -36.0095 6.20076 -21.7287 15.1505 -15.6911 0.368473 9.90896 -0.00117926 -3.58095 0.146052 -0.75265 80.6852 -26.9004 -1.59602 26.4786 13.7034 8.07109 -0.369625 9.91382 0.00119886 -2.47403 -14.8674 5.72564 1.78939 20.6588 15.1665 -1.99227 -3.0163 0.101524 -1.6525 0.238123 -0.488994 
-31.2289 100.539 186.941 -0.663237 -0.283561 -175.44 0.935189 -1.50407 -3.71447 -12.2679 42.833 23.5626 -5.57194 8.57231 0.478251 -8.58474 -2.06151 -0.0531343 -1.91402 2.62543 1.05324 4.61932 0.99318 -0.27175 0.918986 14.1267 0.783571 4.96962e-016 -1.59028e-015 7.95139e-016 -86.8916 -34.8339 5.60643 -21.8963 15.3055 -16.2991 0.368473 9.90896 -0.00117926 -3.03102 0.136407 -1.13432 79.7938 -27.3075 -2.19994 26.5576 13.5658 7.55186 -0.369625 9.91382 0.00119886 -2.44896 -14.1303 5.04793 1.50719 20.724 16.3095 -2.11961 -3.76367 0.0931524 -1.8464 0.385749 -0.579117 
-31.6338 100.636 185.707 -0.340805 -0.325867 -175.931 1.25758 -4.0198 -2.78675 -11.9995 46.1382 19.4731 -6.5619 7.48215 0.502151 -1.59712 -1.55832 0.662957 -1.81251 2.53722 1.02664 4.67307 1.21638 -0.276813 1.16739 13.7185 0.75107 2.98177e-016 0 7.95139e-016 -86.9353 -33.4475 4.75565 -21.9845 15.4294 -16.7911 0.368473 9.90896 -0.00117926 -2.40597 0.117078 -1.6562 78.8671 -27.6377 -2.69417 26.6564 13.4687 7.1905 -0.369625 9.91382 0.00119886 -2.29051 -13.3122 4.45738 1.29104 20.7034 17.3065 -2.18894 -4.42117 0.0843991 -1.95754 0.590585 -0.664159 
-32.0264 100.706 184.511 0.0885455 -0.214237 -176.398 1.65766 -6.33825 -2.19051 -11.6793 48.7145 15.2091 -8.18712 6.12345 0.53312 2.94346 -0.319831 0.952624 -1.71963 2.44793 1.05582 4.92748 1.71541 -0.293503 1.38303 13.3341 0.635725 1.49089e-016 -7.95139e-016 2.38542e-015 -87.2917 -32.0517 3.47003 -21.8463 15.478 -17.0465 0.368473 9.90896 -0.00117926 -1.94982 0.0777284 -2.34312 78.1276 -27.8453 -3.07235 26.7519 13.4577 7.16777 -0.369625 9.91382 0.00119886 -2.03646 -12.3942 4.68524 1.38099 20.7247 17.3706 -2.08703 -4.97033 0.0774064 -2.24828 0.766496 -0.784799 
-32.396 100.768 183.33 0.582931 -0.0345238 -176.838 2.14443 -8.50903 -1.84513 -11.1553 50.4381 11.0564 -9.81748 4.52157 0.52623 6.09895 0.599749 1.12808 -1.6413 2.36052 1.1145 5.29944 2.29766 -0.317266 1.60295 13.0749 0.402737 -9.44227e-016 1.59028e-015 -7.95139e-016 -87.7724 -30.629 1.95821 -21.5929 15.4682 -17.081 0.368473 9.90896 -0.00117926 -1.56987 0.0300213 -3.07891 77.467 -28.0754 -3.46002 26.8009 13.5105 7.39815 -0.369625 9.91382 0.00119886 -1.69264 -11.4323 5.29394 1.574 20.7728 17.0491 -1.98411 -5.5297 0.0686799 -2.48119 0.880415 -0.873831 
-32.7389 100.835 182.142 1.11036 0.163701 -177.281 2.70335 -10.5344 -1.90327 -11.0029 51.2231 8.4122 -10.75 2.79354 0.417942 7.66735 -0.0453989 1.39785 -1.63492 2.28994 1.2075 5.79584 2.80737 -0.348685 1.81689 13.0997 -0.00556033 7.45443e-016 1.59028e-015 -7.95139e-016 -88.3368 -29.2487 0.330419 -21.2792 15.3841 -16.7973 0.368473 9.90896 -0.00117926 -1.2948 -0.0142243 -3.71255 76.8294 -28.5208 -4.0598 26.7186 13.6495 7.98255 -0.369625 9.91382 0.00119886 -1.20993 -10.4815 6.16676 1.74164 20.9124 16.6214 -2.09112 -6.33093 0.0516094 -2.43323 0.788732 -0.836826 
-33.0489 100.884 180.963 1.61645 0.358745 -177.681 3.22565 -12.3996 -2.23675 -10.9194 51.2115 6.65172 -11.3715 1.19066 0.283552 8.52247 -1.02418 1.6478 -1.65008 2.2308 1.29416 6.24219 3.27621 -0.379552 2.12465 13.3092 -0.511459 6.95746e-016 7.95139e-016 -7.95139e-016 -88.846 -27.8788 -1.35471 -20.9177 15.2735 -16.4162 0.368473 9.90896 -0.00117926 -1.00174 -0.0658421 -4.37347 76.2462 -28.9849 -4.65029 26.5964 13.7801 8.54493 -0.369625 9.91382 0.00119886 -0.739818 -9.51814 7.08561 1.89777 21.0131 16.1027 -2.17355 -7.0163 0.0376263 -2.32586 0.736994 -0.796083 
-33.313 100.883 179.804 2.01937 0.51794 -177.997 3.59822 -14.0821 -2.76117 -10.4474 50.4418 5.54907 -11.8331 0.105507 0.185764 9.65821 -1.31068 1.82098 -1.63981 2.18693 1.32233 6.39913 3.70476 -0.400257 2.69153 13.7204 -1.05658 -7.95139e-016 -7.95139e-016 -0 -89.127 -26.504 -3.03901 -20.5338 15.1783 -16.112 0.368473 9.90896 -0.00117926 -0.539862 -0.135891 -5.19455 75.7912 -29.3107 -4.99729 26.5072 13.7767 8.57118 -0.369625 9.91382 0.00119886 -0.423169 -8.5111 7.75571 2.0003 20.9238 15.5612 -1.97203 -7.14529 0.0413941 -2.37362 1.03028 -0.888476 
-33.5474 100.869 178.653 2.3627 0.624399 -178.237 3.89616 -15.605 -3.49437 -9.90493 48.9558 4.76592 -12.102 -0.768453 0.0957461 10.4416 -1.53674 1.95245 -1.65191 2.14559 1.33124 6.46684 4.03046 -0.41551 3.31426 14.1438 -1.6416 -6.95746e-016 -7.95139e-016 -0 -89.286 -25.1652 -4.63269 -20.1511 15.1044 -15.9256 0.368473 9.90896 -0.00117926 -0.0246912 -0.211616 -6.01442 75.3275 -29.5858 -5.31873 26.4452 13.7671 8.57105 -0.369625 9.91382 0.00119886 -0.16741 -7.54162 8.30514 2.06996 20.7705 15.1242 -1.7695 -7.19799 0.0468492 -2.37309 1.34637 -0.975899 
-33.7654 100.88 177.506 2.66921 0.63183 -178.378 4.17729 -17.0016 -4.51858 -9.54057 46.7184 3.88173 -12.1536 -1.68507 -0.00271621 10.2981 -2.13442 2.05523 -1.73342 2.09152 1.34894 6.59452 4.1585 -0.427169 3.80375 14.3552 -2.26912 2.98177e-016 0 3.97569e-016 -89.4021 -23.8987 -6.00823 -19.7941 15.0742 -15.9753 0.368473 9.90896 -0.00117926 0.485745 -0.282788 -6.68844 74.6701 -29.8351 -5.81298 26.4472 13.8713 9.02656 -0.369625 9.91382 0.00119886 0.0841567 -6.71297 8.71623 2.11982 20.6393 15.0993 -1.85076 -7.58049 0.0391588 -1.99832 1.42444 -0.906823 
-33.9627 100.884 176.356 2.91937 0.595857 -178.472 4.40375 -18.2128 -5.55381 -9.0968 43.9075 2.903 -12.1241 -2.40993 -0.0838402 10.0649 -2.67677 2.13986 -1.83907 2.03618 1.35686 6.69585 4.18624 -0.434151 4.24813 14.4772 -2.86656 3.47873e-016 -7.95139e-016 3.97569e-016 -89.4494 -22.7189 -7.24642 -19.4886 15.0809 -16.2027 0.368473 9.90896 -0.00117926 0.974482 -0.353342 -7.29934 74.0146 -30.0802 -6.31549 26.45 13.9816 9.50908 -0.369625 9.91382 0.00119886 0.300736 -5.92435 9.12749 2.15118 20.5085 15.0063 -1.952 -8.07418 0.0291878 -1.84019 1.38556 -0.858031 
